<svg xmlns="http://www.w3.org/2000/svg" viewBox="0 0 1600 900" width="1600" height="900" preserveAspectRatio="xMidYMid slice">
  <defs>
    <linearGradient id="bg" x1="0" y1="0" x2="0" y2="1">
      <stop offset="0" stop-color="#F2EBE0"/>
      <stop offset="1" stop-color="#E8DDD0"/>
    </linearGradient>
    <linearGradient id="warm" x1="0" y1="0" x2="0" y2="1">
      <stop offset="0" stop-color="#E8D7B7"/>
      <stop offset="1" stop-color="#C9A875"/>
    </linearGradient>
    <linearGradient id="amber" x1="0" y1="0" x2="0" y2="1">
      <stop offset="0" stop-color="#7A4A22"/>
      <stop offset="1" stop-color="#3B1E0C"/>
    </linearGradient>
    <linearGradient id="glass" x1="0" y1="0" x2="0" y2="1">
      <stop offset="0" stop-color="#E6D8C2" stop-opacity="0.95"/>
      <stop offset="1" stop-color="#B3997A" stop-opacity="0.9"/>
    </linearGradient>
    <linearGradient id="dark" x1="0" y1="0" x2="0" y2="1">
      <stop offset="0" stop-color="#1B1716"/>
      <stop offset="1" stop-color="#0A0908"/>
    </linearGradient>
    <linearGradient id="dress" x1="0" y1="0" x2="0" y2="1">
      <stop offset="0" stop-color="#F4ECDC"/>
      <stop offset="1" stop-color="#C8B89B"/>
    </linearGradient>
  </defs>
  
  <rect width="1600" height="900" fill="url(#bg)"/>
  <ellipse cx="800" cy="558" rx="512" ry="414" fill="#D9A199" opacity="0.35"/>
  <ellipse cx="800" cy="495.00000000000006" rx="288" ry="216" fill="#E8C7B0"/>
  <path d="M544 288 Q800 162 1056 288 L1056 360 Q800 252.00000000000003 544 360 Z" fill="#2A2522"/>
  <ellipse cx="672" cy="486.00000000000006" rx="3" ry="4" fill="#1B1716"/>
  <ellipse cx="927.9999999999999" cy="486.00000000000006" rx="3" ry="4" fill="#1B1716"/>
  <path d="M720 594 Q800 630 880.0000000000001 594 Q800 612 720 594 Z" fill="#D9A199"/>
  <path d="M800 162 L992 198 L960 216 L800 180 L640 216 L608 198 Z" fill="#0E0D0C"/>

</svg>